<svg xmlns="http://www.w3.org/2000/svg" width="89.587" height="102.927" viewBox="0 0 89.587 102.927">
  <g id="Adolescencia" transform="translate(45.12 51.813)">
    <g id="CBB_ilustración_6" data-name="CBB ilustración 6" transform="translate(-44.467 -51.114)">
      <path id="Trazado_3409" data-name="Trazado 3409" d="M46.847,10.509a75.8,75.8,0,0,0-11.43-.305c-5.851.275-11.451.308-16.521,3.749a12.123,12.123,0,0,0-4.619,14.221c1.057,2.734,3.032,4.863,3.553,7.821.55,3.123-.022,6.312.031,9.455.02,1.162-1.128,1.935-1.982,2.75-1.654,1.579-3.207,3.26-4.833,4.867-.7.691-1.487,1.014-1.34,2.1.33,2.436,2.851,2.546,4.295,3.95a3.077,3.077,0,0,1,.6,3.617c-.376.887-.815,1.9-.388,2.768.4.818,1.472,1.2,1.741,2.071.245.791-.279,1.666-.042,2.458.4,1.345,2.275,1.314,2.954,2.31a9.585,9.585,0,0,1,1.284,4.36c.278,4.056,2.422,5.871,6.286,5.378a35.175,35.175,0,0,0,6-1.737c3.839-1.217,7.729-1.618,7.577,3.443-.127,4.236.046,8.473-.025,12.709-.07,4.116-2.421,9.862,3.857,9.826,3.561-.02,20.325-.651,21.212-3.355a2.975,2.975,0,0,0-.108-1.659q-1.9-7.3-3.8-14.6c-.4-1.517-1.792,4.637-.281,3.378,1.3-1.086,2.078,1.666,3.454,2.024,1.673.435,11.707-.935,13.41-1.181,8.5-1.229,12.53-3.166,15.009-14.334.978-4.4-3.244-8.954-6.745-11.6-4.342-3.277,1.441-8.584-4.216-14.922-1.31-1.468-4.293-3.138-4.385-5.111-.161-3.442.268-2.606.581-5.935a22.613,22.613,0,0,0-1.163-9.38A25.467,25.467,0,0,0,64.2,15.221,51.126,51.126,0,0,0,46.847,10.509Z" transform="translate(-3.949 -4.094)" fill="#f2ecdf"/>
      <g id="Grupo_3139" data-name="Grupo 3139">
        <path id="Trazado_3410" data-name="Trazado 3410" d="M28.733,33.424a14.131,14.131,0,0,1,3.556-4.641,1.383,1.383,0,0,1,1.111-.338,1.431,1.431,0,0,1,.731.7q.681,1.088,1.277,2.225a11.869,11.869,0,0,1,4.038-1.148,4.034,4.034,0,0,1,3.647,1.7,3.033,3.033,0,0,1,.386,2.026,1.8,1.8,0,0,1,2.513.581,3.476,3.476,0,0,1,.215,2.818A6.855,6.855,0,0,1,42.7,41.549a2.6,2.6,0,0,1,2.4.857,5.091,5.091,0,0,1,1.126,2.38,1.426,1.426,0,0,1,.008.831c-.188.479-.78.636-1.291.7a11.838,11.838,0,0,1-2.428.03,4.533,4.533,0,0,1-2.4,3.762,2.608,2.608,0,0,1-1.564.326,3.159,3.159,0,0,1-1.275-.587,11.541,11.541,0,0,1-3.447-3.731,3.119,3.119,0,0,1-4.662.155,3.639,3.639,0,0,1,.283-4.843,3,3,0,0,1-3.53.06,1.377,1.377,0,0,1-.515-.623,1.621,1.621,0,0,1,.209-1.223,7.653,7.653,0,0,1,2.956-3.162,4.594,4.594,0,0,1-1.69-.247,1.561,1.561,0,0,1-1.019-1.27,1.539,1.539,0,0,1,1.039-1.4,3.928,3.928,0,0,1,1.84-.135,3.607,3.607,0,0,0-.326-2.318s-3.794-8.978.5-9.912c10.474-2.279,17.968,13.925,28.9,5.816,4.83-3.582,2.557-9.373-.9-14.294C47.253-1.036,24.184-2.216,10.986,6.74A14.107,14.107,0,0,0,4.915,17.394,13.9,13.9,0,0,0,8.56,27.96c2.849,3.256,1.224,9.4,1.291,13.336.022,1.275-1.238,2.123-2.174,3.017C5.858,46.048,4.151,47.9,2.363,49.662c-.635.627-1.539,1.305-1.334,2.349a5.1,5.1,0,0,0,2.089,2.639c.947.67,2.077.886,2.859,1.849a3.361,3.361,0,0,1,.7,2.213c-.017,1.127-.814,2-1.015,3.121a2.277,2.277,0,0,0,.026,1.137C6,63.89,7.14,64.255,7.644,65.083c.544.895.214,2.038.255,3.085a1.2,1.2,0,0,0,.124.552,1.23,1.23,0,0,0,.462.415c.587.353,1.242.583,1.827.939,1.816,1.108,2.744,5.093,2.874,6.99.305,4.45,2.657,6.441,6.9,5.9,2.241-.285,3.14-.915,5.322-1.607,7.02-2.226,8.892-.985,8.452,6.461-.143,2.41-.568,8.42-1.407,14.235" transform="translate(-1 -1)" fill="none" stroke="#dcc0b3" stroke-linecap="round" stroke-linejoin="round" stroke-width="1.321"/>
        <path id="Trazado_3411" data-name="Trazado 3411" d="M50.237,58.339c.82,1.079-.445,1.91-.975,2.029a1.09,1.09,0,0,1,.651.5.872.872,0,0,1-.022.646,1.444,1.444,0,0,1-.839.861,1.152,1.152,0,0,1-1.158-.221" transform="translate(-16.92 -20.466)" fill="none" stroke="#dcc0b3" stroke-linecap="round" stroke-linejoin="round" stroke-width="1.321"/>
        <path id="Trazado_3412" data-name="Trazado 3412" d="M57.768,50.872c-2.1-.065,1.378,1.706-.1,2.676l1.746.656c.359.135.777.341.816.724a1.047,1.047,0,0,1-.176.581l-.511.953" transform="translate(-20.037 -17.931)" fill="none" stroke="#dcc0b3" stroke-linecap="round" stroke-linejoin="round" stroke-width="1.321"/>
        <path id="Trazado_3413" data-name="Trazado 3413" d="M59.086,65.229c-.219.543-.517,1.649-.877,1.5-.367.3-1.33-.618-1.7-.319a1.477,1.477,0,0,1-1.223.475,1.347,1.347,0,0,1-.777-.908" transform="translate(-19.167 -22.805)" fill="none" stroke="#dcc0b3" stroke-linecap="round" stroke-linejoin="round" stroke-width="1.321"/>
        <path id="Trazado_3414" data-name="Trazado 3414" d="M50.178,50.014a3.481,3.481,0,0,0-1.817.457,1.258,1.258,0,0,0-.623.659.569.569,0,0,0,.368.733,1.206,1.206,0,0,0-1.176.734,4.405,4.405,0,0,0,.746.779" transform="translate(-16.593 -17.64)" fill="none" stroke="#dcc0b3" stroke-linecap="round" stroke-linejoin="round" stroke-width="1.321"/>
      </g>
    </g>
  </g>
</svg>
