<svg xmlns="http://www.w3.org/2000/svg" width="79.516" height="100.637" viewBox="0 0 79.516 100.637">
  <g id="Adultos" transform="translate(40.089 50.28)">
    <g id="CBB_ilustración_1" data-name="CBB ilustración 1" transform="translate(-39.427 -49.611)">
      <g id="Grupo_3137" data-name="Grupo 3137" transform="translate(6.824 0.151)">
        <path id="Trazado_3406" data-name="Trazado 3406" d="M42.315,99.591c8.569,1.2,22.017,1.41,28.667-5.258,2.065-2.071.233-6.5-.259-8.99C70.04,81.881,68.936,69.508,68.512,66a18.255,18.255,0,0,1-.318-5.222,15.015,15.015,0,0,1,4.783-8.46,32.23,32.23,0,0,0,4.258-4.985c4.69-6.812,7.133-14.216,5.734-22.561a26.238,26.238,0,0,0-5.6-12.766c-4.021-4.8-9.365-7.546-15.315-9.162a48.325,48.325,0,0,0-16.4-1.466,41.514,41.514,0,0,0-17.19,4.939C18.215,11.972,14.719,23.675,17.85,32.475a7.316,7.316,0,0,1-.453,6.511c-1.581,2.591-3.2,5.159-4.806,7.735a10.264,10.264,0,0,0-1.032,1.824,2.047,2.047,0,0,0,1.488,3.042,12.738,12.738,0,0,0,3.262.61c.768.018.888.347.7,1-.247.84-.456,1.69-.689,2.534a1.638,1.638,0,0,0,1.059,2.254,4.1,4.1,0,0,1,1.277.744c.378.36.382.633-.081.976-1.74,1.285-1.606,2.722.319,3.75a3.143,3.143,0,0,1,1.641,3.533c-.121.628-.337,1.238-.511,1.855-.895,3.179.683,5.672,3.948,6.054A15.093,15.093,0,0,0,32.5,73.513c1.722-.841,2.475-.5,2.8,1.395.5,2.908,1.38,14.741,1.77,17.667.279,2.1.153,5,2.306,6.144A8.953,8.953,0,0,0,42.315,99.591Z" transform="translate(-11.331 -1.228)" fill="#f2ecdf"/>
      </g>
      <g id="Grupo_3138" data-name="Grupo 3138">
        <path id="Trazado_3407" data-name="Trazado 3407" d="M47.127,63.839c-3.209-2.1-6.579-4.387-8.167-7.879-1.406-3.09-1.188-6.67-.55-10a43.455,43.455,0,0,1,3.585-10.8c1.367-2.816,3.053-5.521,3.815-8.556,1.227-4.886-.713-9.995-6.079-10.675-4.094-.518-6.941,1.151-9.661,3.989-2.773,2.894-3.13,7.1-2.505,11.007a13.906,13.906,0,0,0,5.96,9.485c8.916,5.727,20.434-.264,25.82-7.99,4.594-6.589,4.3-13.712.479-20.612A20.473,20.473,0,0,0,49.162,2.933C39.4-.82,27.746,1.232,18.781,6.172,8.141,12.036,4.515,24.175,7.763,33.3a7.589,7.589,0,0,1-.47,6.754c-1.64,2.688-3.318,5.352-4.986,8.024a10.6,10.6,0,0,0-1.07,1.892c-.589,1.59-.083,2.679,1.544,3.155a13.215,13.215,0,0,0,3.384.633c.8.019.921.36.723,1.033-.256.871-.474,1.753-.715,2.628a1.7,1.7,0,0,0,1.1,2.338,4.241,4.241,0,0,1,1.324.771c.392.373.4.657-.084,1.012-1.8,1.333-1.665,2.824.332,3.89a3.259,3.259,0,0,1,1.7,3.664c-.125.651-.349,1.284-.529,1.925-.929,3.3-.143,7.894,4.1,9.287,3.349,1.1,6.045-.063,8.846-1.43,1.787-.873,2.567-.522,2.908,1.447s1.331,15.405,1.96,19.893" transform="translate(-1 -1)" fill="none" stroke="#dcc0b3" stroke-linecap="round" stroke-linejoin="round" stroke-width="1.321"/>
        <path id="Trazado_3408" data-name="Trazado 3408" d="M65.58,57.823c6.074-2.441,8.171-5.476,6.536-11.955a13.094,13.094,0,0,0-9.591-9.554c-4.206-1.168-4.522,3.8-8.16,5.05a3.849,3.849,0,0,1-3.844-.668,12.817,12.817,0,0,1-1.739-2.949c-4.012-6.692-11.243-.592-14.568,3.287-3.24,3.781-6.493,11.762-3.292,16.549,2.528,3.781,6.317,3.784,8.626.34,2.46-3.668,4.034-7.837,8.617-9.3a3.831,3.831,0,0,1,3.388.17c1.131.823,1.231,2.427,1.544,3.791a8.566,8.566,0,0,0,5.665,6.245C60.395,59.319,63.052,58.838,65.58,57.823Z" transform="translate(-10.712 -12.461)" fill="none" stroke="#dcc0b3" stroke-linecap="round" stroke-linejoin="round" stroke-width="1.321"/>
      </g>
    </g>
  </g>
</svg>
