<svg xmlns="http://www.w3.org/2000/svg" width="84.667" height="102.927" viewBox="0 0 84.667 102.927">
  <g id="Espiritualidad" transform="translate(42.007 51.813)">
    <g id="CBB_ilustración_2" data-name="CBB ilustración 2" transform="translate(-42.007 -51.114)">
      <path id="Trazado_3415" data-name="Trazado 3415" d="M41.117,10.509A75.788,75.788,0,0,1,52.546,10.2c5.851.275,11.451.308,16.521,3.749a12.123,12.123,0,0,1,4.619,14.221c-1.057,2.734-3.032,4.863-3.553,7.821-.55,3.123.022,6.312-.031,9.455-.02,1.162,1.128,1.935,1.982,2.75,1.654,1.579,3.207,3.26,4.833,4.867.7.691,1.488,1.014,1.34,2.1-.33,2.436-2.851,2.546-4.294,3.95a3.076,3.076,0,0,0-.6,3.617c.376.887.815,1.9.388,2.768-.4.818-1.472,1.2-1.741,2.071-.244.791.28,1.666.042,2.458-.4,1.345-2.275,1.314-2.954,2.31a9.585,9.585,0,0,0-1.284,4.36c-.278,4.056-2.422,5.871-6.286,5.378a35.175,35.175,0,0,1-6-1.737c-3.839-1.217-7.729-1.618-7.577,3.443.127,4.236-.046,8.473.026,12.709.069,4.116,2.421,9.862-3.857,9.826-3.561-.02-20.325-.651-21.212-3.355a2.975,2.975,0,0,1,.108-1.659q1.9-7.3,3.8-14.6c.395-1.517,1.845-4.233.334-5.492-1.3-1.086-2.94.112-4.317.47a20.675,20.675,0,0,1-5.137.5c-11.549.041-15-4.7-17.475-15.864-.978-4.4,1.4-8.122,4.908-10.754a49.069,49.069,0,0,1,4.4-2.417c1.688-1.013,2.021-2.036,2.113-4.009C11.8,45.7,10.3,42.358,9.989,39.029a22.613,22.613,0,0,1,1.163-9.38A25.467,25.467,0,0,1,23.759,15.221,51.126,51.126,0,0,1,41.117,10.509Z" transform="translate(0 -4.094)" fill="#f2ecdf"/>
      <g id="Grupo_3145" data-name="Grupo 3145" transform="translate(23.641)">
        <path id="Trazado_3416" data-name="Trazado 3416" d="M64.715,102.054c-.839-5.815-1.264-11.825-1.407-14.235-.44-7.447,1.432-8.687,8.453-6.461,2.182.692,3.081,1.322,5.322,1.607,4.24.541,6.593-1.45,6.9-5.9.129-1.9,1.057-5.882,2.873-6.99.585-.357,1.24-.587,1.827-.939a1.23,1.23,0,0,0,.462-.415,1.2,1.2,0,0,0,.124-.552c.041-1.046-.289-2.19.255-3.085.5-.828,1.64-1.193,1.952-2.111a2.285,2.285,0,0,0,.027-1.137c-.2-1.118-1-1.994-1.015-3.121a3.361,3.361,0,0,1,.7-2.213c.782-.964,1.913-1.179,2.859-1.849a5.1,5.1,0,0,0,2.089-2.639c.205-1.044-.7-1.722-1.334-2.349-1.788-1.767-3.494-3.614-5.313-5.349-.937-.894-2.2-1.742-2.174-3.017.067-3.931-1.558-10.079,1.291-13.336A13.9,13.9,0,0,0,92.25,17.394,14.107,14.107,0,0,0,86.179,6.74c-13.2-8.956-36.266-7.775-45.922,5.977-3.455,4.921-4.75,11.143-4.411,17.146.283,5.022,1.865,10.3,5.776,13.464,4.784,3.87,11.98,3.523,17.407.621a17.243,17.243,0,0,0,7.886-8.172c2.275-5.35,2.067-12.546-3.622-15.784-6.529-3.717-14.138,2.487-15.107,8.933C46.643,39.183,53.9,49.1,52.732,59.383c-.388,3.414-1.987,6.563-3.725,9.528" transform="translate(-35.793 -1)" fill="none" stroke="#e2cfc7" stroke-linecap="round" stroke-linejoin="round" stroke-width="1.321"/>
        <g id="Grupo_3144" data-name="Grupo 3144" transform="translate(2.748 50.528)">
          <g id="Grupo_3141" data-name="Grupo 3141" transform="translate(16.07 1.409)">
            <g id="Grupo_3140" data-name="Grupo 3140">
              <path id="Trazado_3417" data-name="Trazado 3417" d="M69.659,79.892a6.87,6.87,0,0,1,5.55.81c.459.3-1.544,2.279-4.145,3.02a7.626,7.626,0,0,1-5.373-.624A6.3,6.3,0,0,1,69.659,79.892Z" transform="translate(-64.762 -79.632)" fill="none" stroke="#e2cfc7" stroke-linecap="round" stroke-linejoin="round" stroke-width="1.321"/>
              <path id="Trazado_3418" data-name="Trazado 3418" d="M69.2,93.26a6.872,6.872,0,0,1,4.766,2.958c.3.454-2.325,1.473-5.007,1.114a7.629,7.629,0,0,1-4.677-2.717A6.3,6.3,0,0,1,69.2,93.26Z" transform="translate(-64.284 -84.24)" fill="none" stroke="#e2cfc7" stroke-linecap="round" stroke-linejoin="round" stroke-width="1.321"/>
            </g>
          </g>
          <g id="Grupo_3143" data-name="Grupo 3143">
            <g id="Grupo_3142" data-name="Grupo 3142">
              <path id="Trazado_3419" data-name="Trazado 3419" d="M50.219,78.849a6.872,6.872,0,0,0-5.478-1.207c-.534.114.637,2.678,2.808,4.292A7.63,7.63,0,0,0,52.8,83.252,6.3,6.3,0,0,0,50.219,78.849Z" transform="translate(-41.536 -77.498)" fill="none" stroke="#e2cfc7" stroke-linecap="round" stroke-linejoin="round" stroke-width="1.321"/>
              <path id="Trazado_3420" data-name="Trazado 3420" d="M45.517,91.846a6.873,6.873,0,0,0-5.5,1.079c-.444.318,1.653,2.2,4.288,2.814a7.625,7.625,0,0,0,5.336-.886A6.293,6.293,0,0,0,45.517,91.846Z" transform="translate(-39.954 -82.309)" fill="none" stroke="#e2cfc7" stroke-linecap="round" stroke-linejoin="round" stroke-width="1.321"/>
            </g>
          </g>
        </g>
      </g>
    </g>
  </g>
</svg>
