<svg xmlns="http://www.w3.org/2000/svg" width="32.046" height="32.038" viewBox="0 0 32.046 32.038">
  <path id="Icon_awesome-instagram" data-name="Icon awesome-instagram" d="M16.021,10.043a8.214,8.214,0,1,0,8.214,8.214A8.2,8.2,0,0,0,16.021,10.043Zm0,13.555a5.34,5.34,0,1,1,5.34-5.34A5.35,5.35,0,0,1,16.021,23.6ZM26.487,9.707a1.916,1.916,0,1,1-1.916-1.916A1.911,1.911,0,0,1,26.487,9.707Zm5.44,1.945A9.481,9.481,0,0,0,29.34,4.938,9.544,9.544,0,0,0,22.627,2.35c-2.645-.15-10.573-.15-13.219,0A9.53,9.53,0,0,0,2.7,4.931,9.513,9.513,0,0,0,.107,11.644c-.15,2.645-.15,10.573,0,13.219A9.481,9.481,0,0,0,2.7,31.576a9.556,9.556,0,0,0,6.713,2.588c2.645.15,10.573.15,13.219,0a9.481,9.481,0,0,0,6.713-2.588,9.544,9.544,0,0,0,2.588-6.713c.15-2.645.15-10.566,0-13.211ZM28.51,27.7a5.407,5.407,0,0,1-3.045,3.045c-2.109.836-7.113.643-9.444.643s-7.342.186-9.444-.643A5.407,5.407,0,0,1,3.532,27.7c-.836-2.109-.643-7.113-.643-9.444s-.186-7.342.643-9.444A5.407,5.407,0,0,1,6.577,5.768c2.109-.836,7.113-.643,9.444-.643s7.342-.186,9.444.643A5.407,5.407,0,0,1,28.51,8.813c.836,2.109.643,7.113.643,9.444S29.347,25.6,28.51,27.7Z" transform="translate(0.005 -2.238)" fill="#dcc0b3"/>
</svg>
