<svg xmlns="http://www.w3.org/2000/svg" width="83.428" height="102.927" viewBox="0 0 83.428 102.927">
  <g id="Infanca" transform="translate(41.387 51.813)">
    <g id="CBB_ilustración_4" data-name="CBB ilustración 4" transform="translate(-41.387 -51.114)">
      <path id="Trazado_3421" data-name="Trazado 3421" d="M39.877,10.509a75.8,75.8,0,0,1,11.43-.305c5.851.275,11.45.308,16.521,3.749a12.124,12.124,0,0,1,4.619,14.221c-1.057,2.734-3.032,4.863-3.553,7.821-.55,3.123.022,6.312-.031,9.455-.02,1.162,1.128,1.935,1.982,2.75,1.654,1.579,3.207,3.26,4.833,4.867.7.691,1.487,1.014,1.34,2.1-.33,2.436-2.851,2.546-4.295,3.95a3.076,3.076,0,0,0-.6,3.617c.376.887.815,1.9.388,2.768-.4.818-1.472,1.2-1.742,2.071-.244.791.28,1.666.042,2.458-.4,1.345-2.275,1.314-2.954,2.31a9.585,9.585,0,0,0-1.284,4.36c-.278,4.056-2.422,5.871-6.287,5.378a35.185,35.185,0,0,1-6-1.737c-3.839-1.217-7.729-1.618-7.577,3.443.127,4.236-.046,8.473.025,12.709.069,4.116,2.421,9.862-3.857,9.826-3.562-.02-20.325-.651-21.212-3.355a2.974,2.974,0,0,1,.107-1.659q1.9-7.3,3.8-14.6c.395-1.517,1.177-3.715.334-5.492-.76-1.6-1.694-4.2-2.826-5.652-1.063-1.363-3.543-6.022-5.228-6.364-2.931-.6-3.176,19.125-1.4,32.082.384,2.814-.97,1.644-2.269,1.331-.493-.119-2.087,1.1-3.423,1.114-1.006.011-2.059-.832-2.867-.759-2.176.195-2.149,1.02-2.867.927a5.2,5.2,0,0,1-2.7-1.265c-.987-.867-1.779,1.126-1.982.211C-.631,98.437.606,88.6,2.257,63c.506-7.842,4.6-8.985,6.03-9.844,1.687-1.013,2.02-2.036,2.113-4.009.161-3.442-1.338-6.788-1.651-10.117a22.614,22.614,0,0,1,1.164-9.38A25.467,25.467,0,0,1,22.519,15.221,51.122,51.122,0,0,1,39.877,10.509Z" transform="translate(0 -4.094)" fill="#f2ecdf"/>
      <path id="Trazado_3422" data-name="Trazado 3422" d="M52.179,41.018c2.849-1.157,10.793-8,10.793-8L62.12,23.4,52.067,26.768c-.818,3.542-2.23,11.366-.252,14.138-2.374,4.481-4.622,8.165-5.338,13.185-.532,3.733-1.129,7.306-.437,11.528a3.578,3.578,0,0,0,3.991,3.309c3.433-.127,3.5-6.232,3.369-9.665-.506-13.793-11.33-22.5-9.612-32.731,1.518-9.039,15-12.46,20.313-7.149a19.352,19.352,0,0,1,5.151,17.046c-1.532,5.385-6.746,7.433-11.636,8.532-6,1.349-13.089,2.236-17.873-1.633-3.911-3.164-5.492-8.442-5.776-13.464-.339-6,.956-12.225,4.412-17.146C48.036-1.036,71.1-2.216,84.3,6.74a14.106,14.106,0,0,1,6.072,10.655A13.9,13.9,0,0,1,86.728,27.96c-2.848,3.256-1.223,9.4-1.29,13.336-.022,1.275,1.238,2.123,2.174,3.017,1.818,1.735,3.525,3.583,5.313,5.349.635.627,1.539,1.305,1.334,2.349a5.1,5.1,0,0,1-2.089,2.639c-.947.67-2.078.886-2.86,1.849a3.368,3.368,0,0,0-.7,2.213c.017,1.127.814,2,1.015,3.121a2.277,2.277,0,0,1-.026,1.137c-.313.918-1.448,1.283-1.952,2.111-.544.895-.215,2.038-.255,3.085a1.2,1.2,0,0,1-.124.552,1.235,1.235,0,0,1-.462.415c-.587.353-1.242.583-1.827.939-1.816,1.108-2.744,5.093-2.874,6.99-.305,4.45-2.657,6.441-6.9,5.9-2.241-.285-3.14-.915-5.322-1.607-7.02-2.226-8.892-.985-8.452,6.461.143,2.41.567,8.42,1.407,14.235" transform="translate(-11.514 -1)" fill="none" stroke="#e2cfc7" stroke-linecap="round" stroke-linejoin="round" stroke-width="1.321"/>
    </g>
  </g>
</svg>
