<svg xmlns="http://www.w3.org/2000/svg" width="105.773" height="100.26" viewBox="0 0 105.773 100.26">
  <g id="Legal" transform="translate(52.886 50.463)">
    <g id="CBB_ilustración_5" data-name="CBB ilustración 5" transform="translate(-52.225 -49.797)">
      <path id="Trazado_3423" data-name="Trazado 3423" d="M101.783,49.973a10.228,10.228,0,0,0-1.37-1.586c-2.08-2.211-4.17-4.412-6.229-6.643a7.317,7.317,0,0,1-1.721-6.3c1.254-8.608-3.626-18.554-13.32-22.735a33.167,33.167,0,0,0-9.271-6.607A48.313,48.313,0,0,0,54.081,1.455,41.5,41.5,0,0,0,36.256,2.929C25.09,6.462,19.368,17.252,20.714,26.5a7.315,7.315,0,0,1-1.721,6.3c-2.058,2.231-4.149,4.433-6.229,6.643A10.193,10.193,0,0,0,11.4,41.021a2.047,2.047,0,0,0,.863,3.274,12.712,12.712,0,0,0,3.079,1.238c.75.168.8.515.488,1.113-.407.775-.779,1.567-1.172,2.349a1.638,1.638,0,0,0,.6,2.417,4.1,4.1,0,0,1,1.106.98c.3.427.251.7-.27.941-1.958.919-2.108,2.355-.422,3.74a3.14,3.14,0,0,1,.916,3.785c-.241.592-.573,1.148-.864,1.719-1.5,2.942-.442,5.7,2.685,6.711a15.088,15.088,0,0,0,8.632.32c1.853-.487,2.525-.009,2.475,1.917-.077,2.951-.112,5.91-.3,8.856-.136,2.111-.828,4.929,1.057,6.477a8.961,8.961,0,0,0,2.712,1.431A58.071,58.071,0,0,0,49.42,91.65c-.112,2.334-.038,4.93,1.643,6.055,3.243,2.169,7.4,2.951,11.738,2.921a56.723,56.723,0,0,0,17.4-3.384,8.961,8.961,0,0,0,2.712-1.431c1.886-1.547,1.194-4.366,1.057-6.477-.191-2.946-.225-5.9-.3-8.855-.05-1.926.622-2.4,2.475-1.917a15.1,15.1,0,0,0,8.632-.319c3.127-1.015,4.186-3.769,2.684-6.711-.291-.572-.622-1.127-.864-1.719a3.141,3.141,0,0,1,.916-3.786c1.686-1.386,1.536-2.821-.421-3.74-.521-.244-.571-.514-.271-.941a4.1,4.1,0,0,1,1.106-.979,1.639,1.639,0,0,0,.6-2.418c-.394-.781-.765-1.575-1.172-2.349-.315-.6-.262-.945.488-1.113a12.766,12.766,0,0,0,3.079-1.238A2.048,2.048,0,0,0,101.783,49.973Z" transform="translate(-4.364 -1.032)" fill="#f2ecdf"/>
      <path id="Trazado_3424" data-name="Trazado 3424" d="M46.274,73.616a7.376,7.376,0,0,1,1.094-1.827c6.29-8.509,12.384-16.379,16.383-26.317C67.4,36.4,69.475,26.09,66.434,16.535A20.471,20.471,0,0,0,57.719,5.746C48.884.153,37.052-.12,27.293,2.968,15.709,6.632,9.774,17.826,11.17,27.414a7.592,7.592,0,0,1-1.785,6.532c-2.135,2.314-4.3,4.6-6.461,6.891A10.588,10.588,0,0,0,1.5,42.482c-.889,1.444-.606,2.61.9,3.4a13.216,13.216,0,0,0,3.194,1.285c.777.174.833.533.506,1.155-.423.8-.808,1.626-1.217,2.437a1.7,1.7,0,0,0,.62,2.508,4.274,4.274,0,0,1,1.147,1.016c.311.443.26.723-.281.976-2.03.953-2.186,2.442-.437,3.879a3.259,3.259,0,0,1,.95,3.927c-.25.614-.594,1.191-.9,1.784C4.428,67.9,5.526,71.549,8.77,72.6a15.655,15.655,0,0,0,8.955.331c1.922-.505,2.62-.009,2.567,1.989S20,81.473,19.741,86" transform="translate(-1 -1)" fill="none" stroke="#e2cfc7" stroke-linecap="round" stroke-linejoin="round" stroke-width="1.321"/>
      <path id="Trazado_3425" data-name="Trazado 3425" d="M108.047,99.372c-.262-4.525-.5-9.075-.552-11.076s.645-2.494,2.567-1.989a15.652,15.652,0,0,0,8.954-.332c3.244-1.052,4.342-4.705,2.785-7.758-.3-.593-.646-1.169-.9-1.783a3.259,3.259,0,0,1,.95-3.927c1.749-1.437,1.593-2.926-.437-3.88-.54-.254-.592-.533-.281-.976a4.253,4.253,0,0,1,1.148-1.015,1.7,1.7,0,0,0,.619-2.509c-.408-.81-.794-1.633-1.217-2.437-.326-.621-.271-.98.507-1.155a13.194,13.194,0,0,0,3.194-1.284c1.5-.786,1.785-1.953.9-3.4a10.619,10.619,0,0,0-1.42-1.645c-2.158-2.293-4.326-4.577-6.462-6.89a7.591,7.591,0,0,1-1.785-6.532c1.4-9.589-4.54-20.782-16.122-24.446-7.88-2.493-17.858-3.686-25.525.108-7.563,3.742-10.789,12.172-11.093,20.183a37.565,37.565,0,0,0,1.661,12.5C69.228,61.017,78.913,71.381,88.877,78.5" transform="translate(-22.338 -5.42)" fill="none" stroke="#e2cfc7" stroke-linecap="round" stroke-linejoin="round" stroke-width="1.321"/>
    </g>
  </g>
</svg>
