<svg xmlns="http://www.w3.org/2000/svg" width="31.365" height="31.365" viewBox="0 0 31.365 31.365">
  <path id="Icon_metro-linkedin" data-name="Icon metro-linkedin" d="M28.668,1.928H7.839A5.284,5.284,0,0,0,2.571,7.2V28.025a5.284,5.284,0,0,0,5.268,5.268H28.668a5.284,5.284,0,0,0,5.268-5.268V7.2a5.284,5.284,0,0,0-5.268-5.268ZM14.333,27.412H10.412V13.69h3.921ZM12.372,11.73a1.96,1.96,0,1,1,1.96-1.96A1.96,1.96,0,0,1,12.372,11.73ZM28.055,27.412H24.134V19.571a1.96,1.96,0,1,0-3.921,0v7.841H16.293V13.69h3.921v2.434c.809-1.111,2.045-2.434,3.431-2.434a4.675,4.675,0,0,1,4.411,4.9v8.821Z" transform="translate(-2.571 -1.928)" fill="#dcc0b3"/>
</svg>
