<svg xmlns="http://www.w3.org/2000/svg" width="34" height="46.473" viewBox="0 0 34 46.473">
  <g id="Ilustración_2" data-name="Ilustración 2" transform="translate(17 23.237)">
    <g id="Grupo_196" data-name="Grupo 196" transform="translate(-17 -23.237)">
      <path id="Trazado_413" data-name="Trazado 413" d="M34,208.329c0,4.153-7.611,5.411-17,5.411s-17-1.258-17-5.411S7.611,199.3,17,199.3,34,204.176,34,208.329Z" transform="translate(0 -167.267)" fill="#dcc0b3"/>
      <path id="Trazado_414" data-name="Trazado 414" d="M64.425,124.707c-.225,3.571-5.923,4.011-12.867,3.219s-12.5-2.515-12.28-6.086,6.119-7.119,13.063-6.327S64.65,121.136,64.425,124.707Z" transform="translate(-32.959 -96.851)" fill="#ebded5"/>
      <path id="Trazado_415" data-name="Trazado 415" d="M44.08,65.688c.078,2.171-5.541,3.2-12.5,3.648s-12.627.163-12.705-2.008,5.473-5.085,12.434-5.537S44,63.517,44.08,65.688Z" transform="translate(-15.838 -51.808)" fill="#ebe4d2"/>
      <path id="Trazado_416" data-name="Trazado 416" d="M83.412,6.426c-.155,2.531-3.715,2.91-8.048,2.431s-7.8-1.634-7.645-4.165S71.568-.421,75.9.058,83.566,3.9,83.412,6.426Z" transform="translate(-56.83 0)" fill="#f2ecdf"/>
    </g>
  </g>
</svg>
