<svg xmlns="http://www.w3.org/2000/svg" width="29.264" height="29.25" viewBox="0 0 29.264 29.25">
  <g id="Icon_ionic-ios-megaphone" data-name="Icon ionic-ios-megaphone" transform="translate(-3.368 -3.375)">
    <path id="Trazado_3450" data-name="Trazado 3450" d="M6.335,13.148A6.458,6.458,0,0,1,9.394,7.6a.227.227,0,0,0-.12-.422h0a5.43,5.43,0,0,0-5.21,4.908,1,1,0,0,0-.7,1.048.958.958,0,0,0,.759,1.041,6.2,6.2,0,0,0,4.3,4.535h0a.307.307,0,0,0,.267-.527A7.006,7.006,0,0,1,6.335,13.148Z" fill="#dcc0b3"/>
    <path id="Trazado_3451" data-name="Trazado 3451" d="M31.655,7.228c-.07-.19-.148-.366-.225-.541A7.213,7.213,0,0,0,29.9,4.423a3.47,3.47,0,0,0-2.447-1.048,3.214,3.214,0,0,0-1.814.548A25.078,25.078,0,0,1,14.815,7.158c-2.932,0-2.77.014-2.77.014a6.593,6.593,0,0,0-.731,11.6c.851.71,1.659.619,1.484,1.561s-1.582,6.855-1.758,8.086-.2,1.934.281,2.531,3.48,1.673,4.781,1.673.97-.612.97-3.08-.654-9.26,1.16-9.26c3.4,0,5.168,1.216,7.826,2.229a3.768,3.768,0,0,0,1.413.33,3.468,3.468,0,0,0,2.44-1.28A7.286,7.286,0,0,0,31.437,19.3c.077-.183.155-.366.232-.562a16.419,16.419,0,0,0,.963-5.759A16.429,16.429,0,0,0,31.655,7.228Zm-1.87,11.039c-.45,1.1-1.237,1.983-1.891,1.983s-1.252-.879-1.7-1.983a14.5,14.5,0,0,1-.865-5.252,14.554,14.554,0,0,1,.865-5.266c.45-1.1,1.048-1.758,1.695-1.758s1.427.668,1.884,1.758a14.166,14.166,0,0,1,.014,10.519Z" fill="#dcc0b3"/>
  </g>
</svg>
