<svg xmlns="http://www.w3.org/2000/svg" width="26.101" height="26.149" viewBox="0 0 26.101 26.149">
  <path id="Icon_feather-phone" data-name="Icon feather-phone" d="M26.766,20.7v3.56a2.373,2.373,0,0,1-2.587,2.373,23.482,23.482,0,0,1-10.24-3.643A23.138,23.138,0,0,1,6.82,15.874,23.482,23.482,0,0,1,3.177,5.587,2.373,2.373,0,0,1,5.539,3H9.1a2.373,2.373,0,0,1,2.373,2.041A15.235,15.235,0,0,0,12.3,8.375a2.373,2.373,0,0,1-.534,2.5l-1.507,1.507a18.985,18.985,0,0,0,7.119,7.119L18.888,18a2.373,2.373,0,0,1,2.5-.534,15.236,15.236,0,0,0,3.334.831A2.373,2.373,0,0,1,26.766,20.7Z" transform="translate(-1.917 -1.75)" fill="none" stroke="#727272" stroke-linecap="round" stroke-linejoin="round" stroke-width="2.5"/>
</svg>
